# xmcd
#
# Track frame offsets:
#	150
#	10776
#	23492
#	37984
#	51411
#	67507
#	80244
#	97175
#	109899
#	124817
#	138601
#	152474
#	167392
#	179119
#
# Disc length: 2632 seconds
#
# Revision: 1
# Processed by: cddbd v1.4PL0 Copyright (c) Steve Scherf et al.
# Submitted via: audiograbber 1.82.02
#
DISCID=b30a460e
DTITLE=Charlie Worsham - Ready To Roll
DYEAR=1900
DGENRE=Bluegrass
TTITLE0=Dixie Breakdown
TTITLE1=Randy Lynn Rag
TTITLE2=Clinch Mountain Backstep
TTITLE3=Blackberry Blossom
TTITLE4=Maiden's Prayer
TTITLE5=Groundspeed
TTITLE6=Reuben
TTITLE7=Big Ben-Jesse James
TTITLE8=Rawhide
TTITLE9=Earl's Breakdown
TTITLE10=Shuckin' The Corn
TTITLE11=Whiskey Before Breakfast
TTITLE12=Uncle Pen
TTITLE13=Mississippi Kid
EXTD=
EXTT0=
EXTT1=
EXTT2=
EXTT3=
EXTT4=
EXTT5=
EXTT6=
EXTT7=
EXTT8=
EXTT9=
EXTT10=
EXTT11=
EXTT12=
EXTT13=
PLAYORDER=
